HIERARCHY
ROOT Root
{
  OFFSET 0.0 0.0 0.0
  CHANNELS 6 Xposition Yposition Zposition Zrotation Yrotation Xrotation
  JOINT Hips
  {
    OFFSET 0.0 100.0 0.0
    CHANNELS 6 Xposition Yposition Zposition Zrotation Yrotation Xrotation
    JOINT Spine1
    {
      OFFSET 5.003913 -0.037094 -0.013727
      CHANNELS 3 Zrotation Yrotation Xrotation
      JOINT Spine2
      {
        OFFSET 7.125363 -1e-06 0.0
        CHANNELS 3 Zrotation Yrotation Xrotation
        JOINT Chest
        {
          OFFSET 7.594027 1e-06 0.0
          CHANNELS 3 Zrotation Yrotation Xrotation
          JOINT Neck1
          {
            OFFSET 26.313086 -0.460272 -0.181672
            CHANNELS 3 Zrotation Yrotation Xrotation
            JOINT Neck2
            {
              OFFSET 8.045911 0.0 0.0
              CHANNELS 3 Zrotation Yrotation Xrotation
              JOINT Head
              {
                OFFSET 6.432774 0.0 0.0
                CHANNELS 3 Zrotation Yrotation Xrotation
                JOINT HeadEnd
                {
                  OFFSET 16.169773 0.06451 0.00362
                  CHANNELS 3 Zrotation Yrotation Xrotation
                }
                JOINT Jaw
                {
                  OFFSET 0.108741 3.12938 0.002639
                  CHANNELS 3 Zrotation Yrotation Xrotation
                }
                JOINT LeftEye
                {
                  OFFSET 4.45173 8.166359 3.206392
                  CHANNELS 3 Zrotation Yrotation Xrotation
                }
                JOINT RightEye
                {
                  OFFSET 4.436895 8.135758 -3.222429
                  CHANNELS 3 Zrotation Yrotation Xrotation
                }
              }
            }
          }
          JOINT LeftShoulder
          {
            OFFSET 23.218927 5.195579 1.621656
            CHANNELS 3 Zrotation Yrotation Xrotation
            JOINT LeftArm
            {
              OFFSET 15.902118 2e-06 -2e-06
              CHANNELS 3 Zrotation Yrotation Xrotation
              JOINT LeftForeArm
              {
                OFFSET 28.739307 0.0 -1e-06
                CHANNELS 3 Zrotation Yrotation Xrotation
                JOINT LeftHand
                {
                  OFFSET 27.093981 -4e-06 0.0
                  CHANNELS 3 Zrotation Yrotation Xrotation
                  JOINT LeftHandThumb1
                  {
                    OFFSET 2.276781 3.380274 0.83384
                    CHANNELS 3 Zrotation Yrotation Xrotation
                    JOINT LeftHandThumb2
                    {
                      OFFSET 4.705309 -1e-06 -1e-06
                      CHANNELS 3 Zrotation Yrotation Xrotation
                      JOINT LeftHandThumb3
                      {
                        OFFSET 2.798515 0.0 3e-06
                        CHANNELS 3 Zrotation Yrotation Xrotation
                        JOINT LeftHandThumbEnd
                        {
                          OFFSET 3.180793 4e-06 -4e-06
                          CHANNELS 3 Zrotation Yrotation Xrotation
                        }
                      }
                    }
                  }
                  JOINT LeftHandIndex1
                  {
                    OFFSET 3.247786 2.352677 0.137192
                    CHANNELS 3 Zrotation Yrotation Xrotation
                    JOINT LeftHandIndex2
                    {
                      OFFSET 6.367095 1e-06 0.0
                      CHANNELS 3 Zrotation Yrotation Xrotation
                      JOINT LeftHandIndex3
                      {
                        OFFSET 3.662364 0.0 0.0
                        CHANNELS 3 Zrotation Yrotation Xrotation
                        JOINT LeftHandIndex4
                        {
                          OFFSET 2.329242 4e-06 -4e-06
                          CHANNELS 3 Zrotation Yrotation Xrotation
                          JOINT LeftHandIndexEnd
                          {
                            OFFSET 2.767823 1e-06 0.0
                            CHANNELS 3 Zrotation Yrotation Xrotation
                          }
                        }
                      }
                    }
                  }
                  JOINT LeftHandMiddle1
                  {
                    OFFSET 3.163612 0.945023 -0.406112
                    CHANNELS 3 Zrotation Yrotation Xrotation
                    JOINT LeftHandMiddle2
                    {
                      OFFSET 6.276789 3e-06 0.0
                      CHANNELS 3 Zrotation Yrotation Xrotation
                      JOINT LeftHandMiddle3
                      {
                        OFFSET 4.35652 -1e-06 4e-06
                        CHANNELS 3 Zrotation Yrotation Xrotation
                        JOINT LeftHandMiddle4
                        {
                          OFFSET 2.996877 0.0 8e-06
                          CHANNELS 3 Zrotation Yrotation Xrotation
                          JOINT LeftHandMiddleEnd
                          {
                            OFFSET 2.323256 3e-06 -4e-06
                            CHANNELS 3 Zrotation Yrotation Xrotation
                          }
                        }
                      }
                    }
                  }
                  JOINT LeftHandRing1
                  {
                    OFFSET 2.882606 -0.309162 0.107445
                    CHANNELS 3 Zrotation Yrotation Xrotation
                    JOINT LeftHandRing2
                    {
                      OFFSET 6.033198 0.0 4e-06
                      CHANNELS 3 Zrotation Yrotation Xrotation
                      JOINT LeftHandRing3
                      {
                        OFFSET 4.350578 3e-06 0.0
                        CHANNELS 3 Zrotation Yrotation Xrotation
                        JOINT LeftHandRing4
                        {
                          OFFSET 2.651321 2e-06 -7e-06
                          CHANNELS 3 Zrotation Yrotation Xrotation
                          JOINT LeftHandRingEnd
                          {
                            OFFSET 1.937663 1e-06 -4e-06
                            CHANNELS 3 Zrotation Yrotation Xrotation
                          }
                        }
                      }
                    }
                  }
                  JOINT LeftHandPinky1
                  {
                    OFFSET 2.865315 -1.525436 0.575687
                    CHANNELS 3 Zrotation Yrotation Xrotation
                    JOINT LeftHandPinky2
                    {
                      OFFSET 5.54936 1e-06 -8e-06
                      CHANNELS 3 Zrotation Yrotation Xrotation
                      JOINT LeftHandPinky3
                      {
                        OFFSET 3.070974 0.0 -4e-06
                        CHANNELS 3 Zrotation Yrotation Xrotation
                        JOINT LeftHandPinky4
                        {
                          OFFSET 1.549672 1e-06 0.0
                          CHANNELS 3 Zrotation Yrotation Xrotation
                          JOINT LeftHandPinkyEnd
                          {
                            OFFSET 1.952123 0.0 0.0
                            CHANNELS 3 Zrotation Yrotation Xrotation
                          }
                        }
                      }
                    }
                  }
                }
              }
            }
          }
          JOINT RightShoulder
          {
            OFFSET 23.161716 5.296122 -1.380114
            CHANNELS 3 Zrotation Yrotation Xrotation
            JOINT RightArm
            {
              OFFSET -16.027195 -2e-06 1.1e-05
              CHANNELS 3 Zrotation Yrotation Xrotation
              JOINT RightForeArm
              {
                OFFSET -28.736639 4e-06 2e-06
                CHANNELS 3 Zrotation Yrotation Xrotation
                JOINT RightHand
                {
                  OFFSET -27.133619 6e-06 0.0
                  CHANNELS 3 Zrotation Yrotation Xrotation
                  JOINT RightHandThumb1
                  {
                    OFFSET -2.274328 -3.351035 -0.83067
                    CHANNELS 3 Zrotation Yrotation Xrotation
                    JOINT RightHandThumb2
                    {
                      OFFSET -4.703594 -3e-06 2e-06
                      CHANNELS 3 Zrotation Yrotation Xrotation
                      JOINT RightHandThumb3
                      {
                        OFFSET -2.794935 -4e-06 -3e-06
                        CHANNELS 3 Zrotation Yrotation Xrotation
                        JOINT RightHandThumbEnd
                        {
                          OFFSET -3.183852 4e-06 1e-06
                          CHANNELS 3 Zrotation Yrotation Xrotation
                        }
                      }
                    }
                  }
                  JOINT RightHandIndex1
                  {
                    OFFSET -3.253496 -2.33755 -0.127667
                    CHANNELS 3 Zrotation Yrotation Xrotation
                    JOINT RightHandIndex2
                    {
                      OFFSET -6.344434 0.0 0.0
                      CHANNELS 3 Zrotation Yrotation Xrotation
                      JOINT RightHandIndex3
                      {
                        OFFSET -3.654871 0.0 -8e-06
                        CHANNELS 3 Zrotation Yrotation Xrotation
                        JOINT RightHandIndex4
                        {
                          OFFSET -2.327586 -1e-06 0.0
                          CHANNELS 3 Zrotation Yrotation Xrotation
                          JOINT RightHandIndexEnd
                          {
                            OFFSET -2.770001 3e-06 8e-06
                            CHANNELS 3 Zrotation Yrotation Xrotation
                          }
                        }
                      }
                    }
                  }
                  JOINT RightHandMiddle1
                  {
                    OFFSET -3.168223 -0.944764 0.411762
                    CHANNELS 3 Zrotation Yrotation Xrotation
                    JOINT RightHandMiddle2
                    {
                      OFFSET -6.266691 -1e-06 -4e-06
                      CHANNELS 3 Zrotation Yrotation Xrotation
                      JOINT RightHandMiddle3
                      {
                        OFFSET -4.348901 0.0 0.0
                        CHANNELS 3 Zrotation Yrotation Xrotation
                        JOINT RightHandMiddle4
                        {
                          OFFSET -3.00024 2e-06 -4e-06
                          CHANNELS 3 Zrotation Yrotation Xrotation
                          JOINT RightHandMiddleEnd
                          {
                            OFFSET -2.321477 -4e-06 -4e-06
                            CHANNELS 3 Zrotation Yrotation Xrotation
                          }
                        }
                      }
                    }
                  }
                  JOINT RightHandRing1
                  {
                    OFFSET -2.885654 0.293261 -0.119232
                    CHANNELS 3 Zrotation Yrotation Xrotation
                    JOINT RightHandRing2
                    {
                      OFFSET -6.032835 -1e-06 -4e-06
                      CHANNELS 3 Zrotation Yrotation Xrotation
                      JOINT RightHandRing3
                      {
                        OFFSET -4.33881 0.0 -4e-06
                        CHANNELS 3 Zrotation Yrotation Xrotation
                        JOINT RightHandRing4
                        {
                          OFFSET -2.654903 -4e-06 -4e-06
                          CHANNELS 3 Zrotation Yrotation Xrotation
                          JOINT RightHandRingEnd
                          {
                            OFFSET -1.935122 0.0 4e-06
                            CHANNELS 3 Zrotation Yrotation Xrotation
                          }
                        }
                      }
                    }
                  }
                  JOINT RightHandPinky1
                  {
                    OFFSET -2.866241 1.503904 -0.60527
                    CHANNELS 3 Zrotation Yrotation Xrotation
                    JOINT RightHandPinky2
                    {
                      OFFSET -5.553177 -2e-06 0.0
                      CHANNELS 3 Zrotation Yrotation Xrotation
                      JOINT RightHandPinky3
                      {
                        OFFSET -3.062664 -1e-06 -4e-06
                        CHANNELS 3 Zrotation Yrotation Xrotation
                        JOINT RightHandPinky4
                        {
                          OFFSET -1.546529 2e-06 4e-06
                          CHANNELS 3 Zrotation Yrotation Xrotation
                          JOINT RightHandPinkyEnd
                          {
                            OFFSET -1.952341 0.0 -4e-06
                            CHANNELS 3 Zrotation Yrotation Xrotation
                          }
                        }
                      }
                    }
                  }
                }
              }
            }
          }
        }
      }
    }
    JOINT LeftLeg
    {
      OFFSET -8.443107 2.567604 10.043214
      CHANNELS 3 Zrotation Yrotation Xrotation
      JOINT LeftShin
      {
        OFFSET 43.229198 1e-06 -1e-06
        CHANNELS 3 Zrotation Yrotation Xrotation
        JOINT LeftFoot
        {
          OFFSET 42.298611 1e-06 1e-06
          CHANNELS 3 Zrotation Yrotation Xrotation
          JOINT LeftToeBase
          {
            OFFSET 14.165858 1e-06 0.0
            CHANNELS 3 Zrotation Yrotation Xrotation
            JOINT LeftToeEnd
            {
              OFFSET 6.7141 -0.234461 0.0
              CHANNELS 3 Zrotation Yrotation Xrotation
            }
          }
        }
      }
    }
    JOINT RightLeg
    {
      OFFSET -8.303923 2.592729 -10.047278
      CHANNELS 3 Zrotation Yrotation Xrotation
      JOINT RightShin
      {
        OFFSET -43.369682 0.0 1e-06
        CHANNELS 3 Zrotation Yrotation Xrotation
        JOINT RightFoot
        {
          OFFSET -42.260784 4e-06 2e-06
          CHANNELS 3 Zrotation Yrotation Xrotation
          JOINT RightToeBase
          {
            OFFSET -14.222245 -2e-06 -1e-06
            CHANNELS 3 Zrotation Yrotation Xrotation
            JOINT RightToeEnd
            {
              OFFSET -6.660062 0.232574 -2e-06
              CHANNELS 3 Zrotation Yrotation Xrotation
            }
          }
        }
      }
    }
  }
}
MOTION
Frames: 4
Frame Time: 0.03333333333333333
0.0 0.0 0.0 0.0 -0.0 0.0 2.594958 47.686714 42.383457 88.943634 -1.308746 90.973152 7.121668 -0.090208 0.044679 -8.762314 -0.675257 0.2656 24.386932 0.172824 -1.246033 57.535683 -0.098332 1.739768 -2.513911 -0.122002 1.086389 -24.770027 2.335607 -0.309816 6e-06 -0.0 0.0 -0.0842 -0.068747 0.038541 0.002933 -0.0313 0.060222 0.039008 -0.113513 0.021644 -149.252487 -81.525322 168.270218 65.199791 -38.168072 5.275302 24.099586 0.394044 0.10938 -6.643116 2.610887 -2.615756 17.636625 -26.322725 52.411182 -19.46665 -14.395594 29.410378 1e-06 -8.774819 -2e-06 16.318762 -17.673891 5.943377 -0.609776 -1.795653 -3.889325 -4.807087 -11.046809 -2.937849 3e-06 -20.976015 1e-06 -5.019971 -25.033552 -4.031878 5e-06 -1e-06 1e-06 -10.634531 -5.686969 -3.565586 10.573271 -17.922945 -3.113899 2e-06 -13.821204 -0.0 -0.501779 -31.181494 -4.027012 -11.569388 -59.929897 7.320246 -13.982712 -7.150198 -2.87504 13.772726 -8.401489 -3.218242 0.347732 -34.211544 0.771655 -0.963029 -17.733366 2.621018 1e-06 -0.0 -0.0 -17.346413 -20.095211 -4.201779 21.757553 -1.638374 3.866428 1e-06 -6.338821 2e-06 -1.697591 -22.591742 -6.194005 0.0 -2e-06 -3e-06 -64.321594 -87.887154 -97.771317 75.962708 -46.770935 -11.753405 17.367752 -0.248074 0.050048 1.851886 3.496423 12.182757 22.182112 -20.375891 49.933308 -16.701815 -16.743526 28.47653 -3e-06 -12.690601 -1e-06 15.891091 -17.46814 2.725097 -0.105919 -1.513856 -4.275881 -5.03904 -5.612871 -2.953556 4e-06 -11.020524 -2e-06 -6.111297 -15.895334 -3.84047 0.0 0.0 -0.0 -10.283371 -5.680288 -4.341837 11.028293 -11.302405 -2.372632 -1.384269 -14.238581 -6.32012 -0.625436 -26.924191 -3.827603 -4.20907 -49.833717 -3.460582 -13.708524 -7.363476 -3.72094 18.14115 -14.052739 -3.242675 5e-06 -18.78727 -2e-06 -0.429711 -8.456044 2.555502 -0.0 2e-06 0.0 -15.923536 -20.094484 -5.473582 30.419214 -7.190825 1.735925 2e-06 -8.162925 -1e-06 -1.8619 -22.861473 -6.167946 0.0 -2e-06 -0.0 162.641556 -19.980717 7.052359 135.570862 -0.214533 0.177677 -119.348831 19.107918 -19.721199 -41.307018 2.166138 1.453209 -0.999999 0.0 -1e-06 -17.082664 -18.562914 2.519859 137.148026 0.049747 0.330769 -120.351036 18.744724 -8.175522 -48.826435 1.382427 1.200716 -1.000002 0.0 -0.0 
0.0 0.0 0.0 0.0 -0.0 0.0 2.616256 47.610847 42.10574 88.934509 -1.265201 90.980255 7.369206 -0.042412 0.067091 -8.652098 -0.654124 0.276738 24.804399 0.248116 -1.173276 57.826744 -0.138283 1.75747 -2.509643 -0.182836 0.990351 -25.065458 2.459001 -0.364294 7e-06 0.0 -0.0 -0.086662 -0.070558 0.040998 0.021824 -0.044104 0.076551 0.056634 -0.104529 0.01136 -149.657257 -81.585205 168.71817 65.533875 -37.878273 4.738066 24.020119 0.365697 0.095683 -6.465565 2.696596 -2.860278 17.636627 -26.322733 52.411194 -19.466652 -14.395597 29.410385 0.0 -8.774821 -2e-06 16.355204 -17.662621 5.941701 -0.609777 -1.795654 -3.889328 -4.807089 -11.04681 -2.937851 1e-06 -20.976019 2e-06 -5.019972 -25.033558 -4.031882 6e-06 1e-06 -1e-06 -10.634533 -5.686971 -3.565587 10.573271 -17.922949 -3.113899 2e-06 -13.821206 1e-06 -0.50178 -31.181501 -4.027016 -11.56479 -60.010147 7.336217 -13.982712 -7.150199 -2.875041 13.772727 -8.40149 -3.218243 0.347729 -34.211555 0.771656 -0.96303 -17.73337 2.621019 1e-06 -0.0 0.0 -17.34642 -20.095219 -4.201779 21.757557 -1.638373 3.86643 0.0 -6.338823 1e-06 -1.697591 -22.591747 -6.194007 -0.0 -3e-06 -1e-06 -69.407959 -87.821747 -92.605614 75.976311 -46.234295 -12.160844 17.449129 -0.220482 0.034056 1.860838 3.706035 12.033203 22.182114 -20.375895 49.933327 -16.701815 -16.743526 28.476536 -3e-06 -12.690599 -0.0 15.887791 -17.44418 2.713492 -0.105919 -1.513856 -4.275883 -5.03904 -5.612872 -2.953557 4e-06 -11.020523 -2e-06 -6.111298 -15.895334 -3.84047 0.0 0.0 -1e-06 -10.283369 -5.680289 -4.341837 11.028294 -11.302406 -2.372634 -1.384268 -14.238581 -6.320123 -0.625439 -26.924194 -3.827603 -4.181603 -49.829704 -3.475887 -13.708523 -7.363476 -3.72094 18.141146 -14.052739 -3.242674 5e-06 -18.78727 -1e-06 -0.42971 -8.456043 2.555504 -0.0 1e-06 0.0 -15.923532 -20.094482 -5.473587 30.41921 -7.190824 1.735924 2e-06 -8.162926 0.0 -1.861901 -22.861475 -6.167943 -0.0 -1e-06 -0.0 162.259949 -19.874891 7.275431 135.913376 -0.178358 0.199349 -119.260551 19.050154 -19.759686 -41.534454 2.170239 1.45168 -0.999999 -0.0 -1e-06 -17.430164 -18.657078 2.655967 137.523026 0.041101 0.334408 -120.355148 18.863998 -8.238478 -48.603909 1.385999 1.209729 -1.000002 0.0 -0.0 
0.0 0.0 0.0 0.0 -0.0 0.0 2.630739 47.534679 41.867737 88.918549 -1.241882 90.956863 7.576491 0.012881 0.083482 -8.552141 -0.627511 0.284459 25.201231 0.331681 -1.103397 58.254795 -0.165536 1.769642 -2.507531 -0.267089 0.904829 -25.203808 2.566213 -0.42164 5e-06 -0.0 -0.0 -0.088906 -0.076721 0.045857 0.033879 -0.061558 0.094569 0.067336 -0.099239 0.004032 -149.971359 -81.66391 169.071991 65.927109 -37.639492 4.185068 23.909189 0.350875 0.087314 -6.309649 2.848198 -3.212752 17.636625 -26.322729 52.411179 -19.466654 -14.395596 29.410385 -1e-06 -8.774819 -2e-06 16.36849 -17.664661 5.949772 -0.609776 -1.795653 -3.889328 -4.807087 -11.046808 -2.93785 3e-06 -20.976015 2e-06 -5.01997 -25.033552 -4.031881 7e-06 -0.0 -1e-06 -10.634531 -5.686969 -3.565587 10.573271 -17.922947 -3.1139 3e-06 -13.821205 2e-06 -0.501781 -31.181498 -4.027011 -11.552309 -60.055157 7.3227 -13.98271 -7.150197 -2.875043 13.772726 -8.401491 -3.218243 0.347731 -34.211552 0.771658 -0.963029 -17.733372 2.621019 1e-06 -0.0 0.0 -17.346413 -20.095213 -4.201784 21.757555 -1.638375 3.866429 1e-06 -6.338821 1e-06 -1.69759 -22.591743 -6.194005 0.0 -3e-06 -3e-06 -73.824364 -87.751884 -88.111061 76.009239 -45.694603 -12.628421 17.476151 -0.201943 0.014802 1.857323 3.881314 11.983969 22.182119 -20.375895 49.933323 -16.701815 -16.743528 28.476532 -3e-06 -12.690603 -1e-06 15.876027 -17.414558 2.695729 -0.105919 -1.513856 -4.275883 -5.039041 -5.612871 -2.953557 4e-06 -11.020525 -3e-06 -6.111297 -15.895334 -3.840472 0.0 -0.0 1e-06 -10.283373 -5.680289 -4.341838 11.028296 -11.302406 -2.372633 -1.384268 -14.238583 -6.320122 -0.625438 -26.924196 -3.827601 -4.14214 -49.814507 -3.509998 -13.708527 -7.363476 -3.720939 18.141151 -14.052739 -3.242674 7e-06 -18.78727 -3e-06 -0.42971 -8.456045 2.555504 -1e-06 2e-06 0.0 -15.923536 -20.094484 -5.473585 30.419218 -7.190827 1.735926 2e-06 -8.162927 0.0 -1.8619 -22.861475 -6.167945 -0.0 -2e-06 -0.0 161.942551 -19.786352 7.476182 136.209778 -0.13599 0.219668 -119.209656 18.997776 -19.815615 -41.637264 2.168806 1.45847 -1.000002 0.0 -0.0 -17.769857 -18.740044 2.783706 137.84874 0.03445 0.340072 -120.330765 18.972673 -8.265674 -48.337803 1.386906 1.222459 -1.000003 0.0 -0.0 
0.0 0.0 0.0 0.0 -0.0 0.0 2.650802 47.462002 41.661282 88.899635 -1.229464 90.899796 7.751485 0.063174 0.091207 -8.466249 -0.592404 0.284494 25.527473 0.410013 -1.034229 58.788731 -0.166989 1.761316 -2.506626 -0.346536 0.858746 -25.202824 2.622092 -0.445594 5e-06 -0.0 -0.0 -0.090357 -0.085707 0.052045 0.042903 -0.079435 0.111851 0.075124 -0.099134 -0.000361 -150.08876 -81.756592 169.220505 66.31147 -37.480648 3.747711 23.834906 0.353945 0.088005 -6.224709 3.015296 -3.687922 17.636625 -26.322735 52.411205 -19.46666 -14.395598 29.410389 1e-06 -8.774822 -3e-06 16.345892 -17.669617 5.964775 -0.609777 -1.795654 -3.889329 -4.807089 -11.046811 -2.93785 3e-06 -20.976019 0.0 -5.019972 -25.03356 -4.03188 8e-06 -1e-06 -1e-06 -10.634533 -5.68697 -3.565585 10.573275 -17.922951 -3.113901 3e-06 -13.821209 1e-06 -0.501778 -31.181505 -4.027017 -11.507804 -60.063133 7.270982 -13.982712 -7.150197 -2.875045 13.772727 -8.401491 -3.218242 0.347732 -34.211552 0.771656 -0.963031 -17.733368 2.62102 1e-06 2e-06 1e-06 -17.346418 -20.095219 -4.201784 21.757561 -1.638374 3.866429 1e-06 -6.338822 -0.0 -1.697589 -22.591751 -6.194009 -0.0 -5e-06 -1e-06 -77.343849 -87.67569 -84.531349 76.026924 -45.245457 -13.012986 17.475525 -0.141341 0.004822 1.854017 4.028071 11.8214 22.182119 -20.375895 49.933323 -16.701817 -16.74353 28.476532 -3e-06 -12.690604 -0.0 15.851795 -17.380299 2.670921 -0.105919 -1.513856 -4.275882 -5.039042 -5.612873 -2.953558 3e-06 -11.020527 -0.0 -6.1113 -15.895338 -3.840471 -0.0 0.0 -0.0 -10.283373 -5.68029 -4.341838 11.028297 -11.302407 -2.372634 -1.384269 -14.238586 -6.320123 -0.62544 -26.924202 -3.827601 -4.097745 -49.787964 -3.557853 -13.708527 -7.363478 -3.720938 18.141153 -14.052742 -3.242676 6e-06 -18.787275 -3e-06 -0.42971 -8.456046 2.555503 1e-06 0.0 -0.0 -15.923539 -20.09449 -5.473584 30.419218 -7.190827 1.735926 1e-06 -8.162929 -0.0 -1.861902 -22.861483 -6.167946 1e-06 -1e-06 1e-06 161.688751 -19.710329 7.605755 136.46669 -0.102606 0.228335 -119.180084 18.940741 -19.851187 -41.595551 2.161035 1.462949 -1.0 1e-06 -0.0 -18.106783 -18.817627 2.933769 138.134369 0.028083 0.345597 -120.285599 19.082972 -8.290148 -48.040363 1.386952 1.234316 -1.000003 0.0 -0.0 
